# xmcd CD database file
#
# Track frame offsets:
#	150
#	11625
#	23968
#	37071
#	50342
#	69143
#	80720
#	92737
#	108207
#	125390
#	145311
#	162208
#	180265
#
# Disc length: 2554 seconds
#
# Revision: 0
# Processed by: cddbd v1.5.1PL2 Copyright (c) Steve Scherf et al.
# Submitted via: CDex 1.50
#
DISCID=a109f80d
DTITLE=Kim Carson - Buffalo Speedway
DYEAR=1900
DGENRE=Country
TTITLE0=Cryin' Towel
TTITLE1=Hank's Songs
TTITLE2=Nashville Remedy
TTITLE3=I-10 Westbound Blues
TTITLE4=There's Always Something
TTITLE5=Life-Sol
TTITLE6=Lookout Trouble
TTITLE7=No Angels Down Below
TTITLE8=Neon Halo
TTITLE9=Somethin's Gotta Change
TTITLE10=Cry Over You
TTITLE11=A Couple Of Beers Behind
TTITLE12=K-Town Breakdown
EXTD=
EXTT0=
EXTT1=
EXTT2=
EXTT3=
EXTT4=
EXTT5=
EXTT6=
EXTT7=
EXTT8=
EXTT9=
EXTT10=
EXTT11=
EXTT12=
PLAYORDER=
